# xmcd
#
# Track frame offsets: 
#        150
#        28160
#        71809
#        134233
#        159994
#
# Disc length: 2815 seconds
#
# Revision: 0
# Processed by: cddbd v1.5.2PL0 Copyright (c) Steve Scherf et al.
# Submitted via: ExactAudioCopy v0.99pb5
#
DISCID=480afd05
DTITLE=Cream  - Wheels of Ice-1968-03-08 - Disc 2
DYEAR=1900
DGENRE=
TTITLE0=Sunshine Of Your Love
TTITLE1=N.S.U.
TTITLE2=Stepping Out
TTITLE3=Traintime
TTITLE4=Toad
EXTD=
EXTT0=
EXTT1=
EXTT2=
EXTT3=
EXTT4=
PLAYORDER=
